<svg width="24" height="24" viewBox="0 0 24 24" fill="none" xmlns="http://www.w3.org/2000/svg">
<path fill-rule="evenodd" clip-rule="evenodd" d="M24 12C24 18.6274 18.6274 24 12 24C5.37258 24 0 18.6274 0 12C0 5.37258 5.37258 0 12 0C18.6274 0 24 5.37258 24 12ZM14.198 5.94324L14.0423 6.17208C15.223 6.70795 16.0223 7.72289 16.0223 8.88435H8.22774C8.22774 7.72289 9.02698 6.70795 10.2085 6.17208L10.052 5.94324L9.89642 5.7177L9.54966 5.21064C9.50737 5.14808 9.52513 5.06412 9.58857 5.02297C9.65285 4.98181 9.73911 4.99827 9.78225 5.06083L10.1544 5.60411L10.3108 5.83212L10.469 6.06425C10.9722 5.8741 11.5338 5.76791 12.125 5.76791C12.717 5.76791 13.2778 5.8741 13.781 6.06425L13.94 5.83212L14.4695 5.06083C14.5109 4.99827 14.598 4.98099 14.6614 5.02297C14.7257 5.06412 14.7435 5.14808 14.7003 5.21064L14.3536 5.7177L14.198 5.94324ZM10.4546 7.80027C10.2237 7.80027 10.0368 7.61835 10.0368 7.39364C10.0368 7.16892 10.2237 6.98783 10.4546 6.98783C10.6855 6.98783 10.8724 7.16892 10.8724 7.39364C10.8724 7.61835 10.6855 7.80027 10.4546 7.80027ZM13.7954 7.80027C13.5645 7.80027 13.3776 7.61835 13.3776 7.39364C13.3776 7.16892 13.5645 6.98783 13.7954 6.98783C14.0263 6.98783 14.2132 7.16892 14.2132 7.39364C14.2132 7.61835 14.0263 7.80027 13.7954 7.80027ZM8.28779 9.42597H8.22774V15.3872C8.22774 15.8605 8.62271 16.2457 9.10987 16.2457H9.74588C9.72389 16.3174 9.71205 16.3923 9.71205 16.4713V18.1875C9.71205 18.6362 10.0867 19 10.5477 19C11.0086 19 11.3833 18.6362 11.3833 18.1875V16.4713C11.3833 16.3923 11.3706 16.3174 11.3494 16.2457H12.9006C12.8794 16.3174 12.8676 16.3923 12.8676 16.4713V18.1875C12.8676 18.6362 13.2414 19 13.7023 19C14.1641 19 14.5388 18.6362 14.5388 18.1875V16.4713C14.5388 16.3923 14.5261 16.3174 14.5041 16.2457H15.141C15.6281 16.2457 16.0223 15.8605 16.0223 15.3872V9.42597H8.28779ZM6 10.2384C6 9.7898 6.37383 9.42597 6.83561 9.42597C7.29655 9.42597 7.67038 9.7898 7.67038 10.2384V13.7162C7.67038 14.1648 7.29655 14.5287 6.83561 14.5287C6.37383 14.5287 6 14.1648 6 13.7162V10.2384ZM17.4152 9.42597C16.9534 9.42597 16.5796 9.7898 16.5796 10.2384V13.7162C16.5796 14.1648 16.9534 14.5287 17.4152 14.5287C17.8762 14.5287 18.25 14.1648 18.25 13.7162V10.2384C18.25 9.7898 17.8762 9.42597 17.4152 9.42597Z" fill="#2D5CA6"/>
</svg>
